<svg xmlns="http://www.w3.org/2000/svg" style="display:none;">
<symbol id="zap" viewBox="0 0 24 24"><!-- @license lucide-static v1.33.0 - ISC -->

  <path d="M15.914 4a1.5 1.5 0 00-2.474-1.561l-9 9A1.5 1.5 0 005.5 14h4.002a.5.5 0 01.471.666L8.086 20a1.5 1.5 0 002.475 1.56l9-9A1.5 1.5 0 0018.5 10h-3.997a.5.5 0 01-.472-.667z" /></symbol>
<symbol id="refresh-cw" viewBox="0 0 24 24"><!-- @license lucide-static v1.33.0 - ISC -->

  <path d="M3 12a9 9 0 0 1 9-9 9.75 9.75 0 0 1 6.74 2.74L21 8" />
  <path d="M21 3v5h-5" />
  <path d="M21 12a9 9 0 0 1-9 9 9.75 9.75 0 0 1-6.74-2.74L3 16" />
  <path d="M8 16H3v5" /></symbol>
<symbol id="refresh-ccw" viewBox="0 0 24 24"><!-- @license lucide-static v1.33.0 - ISC -->

  <path d="M21 12a9 9 0 0 0-9-9 9.75 9.75 0 0 0-6.74 2.74L3 8" />
  <path d="M3 3v5h5" />
  <path d="M3 12a9 9 0 0 0 9 9 9.75 9.75 0 0 0 6.74-2.74L21 16" />
  <path d="M16 16h5v5" /></symbol>
<symbol id="x" viewBox="0 0 24 24"><!-- @license lucide-static v1.33.0 - ISC -->

  <path d="M18 6 6 18" />
  <path d="m6 6 12 12" /></symbol>
<symbol id="share-2" viewBox="0 0 24 24"><!-- @license lucide-static v1.33.0 - ISC -->

  <circle cx="18" cy="5" r="3" />
  <circle cx="6" cy="12" r="3" />
  <circle cx="18" cy="19" r="3" />
  <line x1="8.59" x2="15.42" y1="13.51" y2="17.49" />
  <line x1="15.41" x2="8.59" y1="6.51" y2="10.49" /></symbol>
<symbol id="external-link" viewBox="0 0 24 24"><!-- @license lucide-static v1.33.0 - ISC -->

  <path d="M15 3h6v6" />
  <path d="M10 14 21 3" />
  <path d="M18 13v6a2 2 0 0 1-2 2H5a2 2 0 0 1-2-2V8a2 2 0 0 1 2-2h6" /></symbol>
<symbol id="loader-circle" viewBox="0 0 24 24"><!-- @license lucide-static v1.33.0 - ISC -->

  <path d="M21 12a9 9 0 1 1-6.219-8.56" /></symbol>
<symbol id="pencil" viewBox="0 0 24 24"><!-- @license lucide-static v1.33.0 - ISC -->

  <path d="M21.174 6.812a1 1 0 0 0-3.986-3.987L3.842 16.174a2 2 0 0 0-.5.83l-1.321 4.352a.5.5 0 0 0 .623.622l4.353-1.32a2 2 0 0 0 .83-.497z" />
  <path d="m15 5 4 4" /></symbol>
<symbol id="trash-2" viewBox="0 0 24 24"><!-- @license lucide-static v1.33.0 - ISC -->

  <path d="M10 11v6" />
  <path d="M14 11v6" />
  <path d="M19 6v14a2 2 0 0 1-2 2H7a2 2 0 0 1-2-2V6" />
  <path d="M3 6h18" />
  <path d="M8 6V4a2 2 0 0 1 2-2h4a2 2 0 0 1 2 2v2" /></symbol>
<symbol id="arrow-up" viewBox="0 0 24 24"><!-- @license lucide-static v1.33.0 - ISC -->

  <path d="m5 12 7-7 7 7" />
  <path d="M12 19V5" /></symbol>
<symbol id="arrow-down" viewBox="0 0 24 24"><!-- @license lucide-static v1.33.0 - ISC -->

  <path d="M12 5v14" />
  <path d="m19 12-7 7-7-7" /></symbol>
<symbol id="arrow-left" viewBox="0 0 24 24"><!-- @license lucide-static v1.33.0 - ISC -->

  <path d="m12 19-7-7 7-7" />
  <path d="M19 12H5" /></symbol>
<symbol id="arrow-right" viewBox="0 0 24 24"><!-- @license lucide-static v1.33.0 - ISC -->

  <path d="M5 12h14" />
  <path d="m12 5 7 7-7 7" /></symbol>
<symbol id="chevron-down" viewBox="0 0 24 24"><!-- @license lucide-static v1.33.0 - ISC -->

  <path d="m6 9 6 6 6-6" /></symbol>
<symbol id="chevron-up" viewBox="0 0 24 24"><!-- @license lucide-static v1.33.0 - ISC -->

  <path d="m18 15-6-6-6 6" /></symbol>
<symbol id="chevron-left" viewBox="0 0 24 24"><!-- @license lucide-static v1.33.0 - ISC -->

  <path d="m15 18-6-6 6-6" /></symbol>
<symbol id="chevron-right" viewBox="0 0 24 24"><!-- @license lucide-static v1.33.0 - ISC -->

  <path d="m9 18 6-6-6-6" /></symbol>
<symbol id="chevrons-left" viewBox="0 0 24 24"><!-- @license lucide-static v1.33.0 - ISC -->

  <path d="m11 17-5-5 5-5" />
  <path d="m18 17-5-5 5-5" /></symbol>
<symbol id="chevrons-right" viewBox="0 0 24 24"><!-- @license lucide-static v1.33.0 - ISC -->

  <path d="m6 17 5-5-5-5" />
  <path d="m13 17 5-5-5-5" /></symbol>
<symbol id="chevrons-up" viewBox="0 0 24 24"><!-- @license lucide-static v1.33.0 - ISC -->

  <path d="m17 11-5-5-5 5" />
  <path d="m17 18-5-5-5 5" /></symbol>
<symbol id="chevrons-down" viewBox="0 0 24 24"><!-- @license lucide-static v1.33.0 - ISC -->

  <path d="m7 6 5 5 5-5" />
  <path d="m7 13 5 5 5-5" /></symbol>
<symbol id="plus" viewBox="0 0 24 24"><!-- @license lucide-static v1.33.0 - ISC -->

  <path d="M5 12h14" />
  <path d="M12 5v14" /></symbol>
<symbol id="minus" viewBox="0 0 24 24"><!-- @license lucide-static v1.33.0 - ISC -->

  <path d="M5 12h14" /></symbol>
<symbol id="layers" viewBox="0 0 24 24"><!-- @license lucide-static v1.33.0 - ISC -->

  <path d="M12.83 2.18a2 2 0 0 0-1.66 0L2.6 6.08a1 1 0 0 0 0 1.83l8.58 3.91a2 2 0 0 0 1.66 0l8.58-3.9a1 1 0 0 0 0-1.83z" />
  <path d="M2 12a1 1 0 0 0 .58.91l8.6 3.91a2 2 0 0 0 1.65 0l8.58-3.9A1 1 0 0 0 22 12" />
  <path d="M2 17a1 1 0 0 0 .58.91l8.6 3.91a2 2 0 0 0 1.65 0l8.58-3.9A1 1 0 0 0 22 17" /></symbol>
<symbol id="check" viewBox="0 0 24 24"><!-- @license lucide-static v1.33.0 - ISC -->

  <path d="M20 6 9 17l-5-5" /></symbol>
<symbol id="search" viewBox="0 0 24 24"><!-- @license lucide-static v1.33.0 - ISC -->

  <path d="m21 21-4.34-4.34" />
  <circle cx="11" cy="11" r="8" /></symbol>
<symbol id="settings" viewBox="0 0 24 24"><!-- @license lucide-static v1.33.0 - ISC -->

  <path d="M9.671 4.136a2.34 2.34 0 0 1 4.659 0 2.34 2.34 0 0 0 3.319 1.915 2.34 2.34 0 0 1 2.33 4.033 2.34 2.34 0 0 0 0 3.831 2.34 2.34 0 0 1-2.33 4.033 2.34 2.34 0 0 0-3.319 1.915 2.34 2.34 0 0 1-4.659 0 2.34 2.34 0 0 0-3.32-1.915 2.34 2.34 0 0 1-2.33-4.033 2.34 2.34 0 0 0 0-3.831A2.34 2.34 0 0 1 6.35 6.051a2.34 2.34 0 0 0 3.319-1.915" />
  <circle cx="12" cy="12" r="3" /></symbol>
<symbol id="eye" viewBox="0 0 24 24"><!-- @license lucide-static v1.33.0 - ISC -->

  <path d="M2.062 12.348a1 1 0 0 1 0-.696 10.75 10.75 0 0 1 19.876 0 1 1 0 0 1 0 .696 10.75 10.75 0 0 1-19.876 0" />
  <circle cx="12" cy="12" r="3" /></symbol>
<symbol id="eye-off" viewBox="0 0 24 24"><!-- @license lucide-static v1.33.0 - ISC -->

  <path d="M10.733 5.076a10.744 10.744 0 0 1 11.205 6.575 1 1 0 0 1 0 .696 10.747 10.747 0 0 1-1.444 2.49" />
  <path d="M14.084 14.158a3 3 0 0 1-4.242-4.242" />
  <path d="M17.479 17.499a10.75 10.75 0 0 1-15.417-5.151 1 1 0 0 1 0-.696 10.75 10.75 0 0 1 4.446-5.143" />
  <path d="m2 2 20 20" /></symbol>
<symbol id="circle-alert" viewBox="0 0 24 24"><!-- @license lucide-static v1.33.0 - ISC -->

  <circle cx="12" cy="12" r="10" />
  <line x1="12" x2="12" y1="8" y2="12" />
  <line x1="12" x2="12.01" y1="16" y2="16" /></symbol>
<symbol id="triangle-alert" viewBox="0 0 24 24"><!-- @license lucide-static v1.33.0 - ISC -->

  <path d="m21.73 18-8-14a2 2 0 0 0-3.48 0l-8 14A2 2 0 0 0 4 21h16a2 2 0 0 0 1.73-3" />
  <path d="M12 9v4" />
  <path d="M12 17h.01" /></symbol>
<symbol id="terminal" viewBox="0 0 24 24"><!-- @license lucide-static v1.33.0 - ISC -->

  <path d="M12 19h8" />
  <path d="m4 17 6-6-6-6" /></symbol>
<symbol id="palette" viewBox="0 0 24 24"><!-- @license lucide-static v1.33.0 - ISC -->

  <path d="M12 22a1 1 0 0 1 0-20 10 9 0 0 1 10 9 5 5 0 0 1-5 5h-2.25a1.75 1.75 0 0 0-1.4 2.8l.3.4a1.75 1.75 0 0 1-1.4 2.8z" />
  <circle cx="13.5" cy="6.5" r=".5" fill="currentColor" />
  <circle cx="17.5" cy="10.5" r=".5" fill="currentColor" />
  <circle cx="6.5" cy="12.5" r=".5" fill="currentColor" />
  <circle cx="8.5" cy="7.5" r=".5" fill="currentColor" /></symbol>
<symbol id="sliders-horizontal" viewBox="0 0 24 24"><!-- @license lucide-static v1.33.0 - ISC -->

  <path d="M10 5H3" />
  <path d="M12 19H3" />
  <path d="M14 3v4" />
  <path d="M16 17v4" />
  <path d="M21 12h-9" />
  <path d="M21 19h-5" />
  <path d="M21 5h-7" />
  <path d="M8 10v4" />
  <path d="M8 12H3" /></symbol>
<symbol id="sun" viewBox="0 0 24 24"><!-- @license lucide-static v1.33.0 - ISC -->

  <circle cx="12" cy="12" r="4" />
  <path d="M12 2v2" />
  <path d="M12 20v2" />
  <path d="m4.93 4.93 1.41 1.41" />
  <path d="m17.66 17.66 1.41 1.41" />
  <path d="M2 12h2" />
  <path d="M20 12h2" />
  <path d="m6.34 17.66-1.41 1.41" />
  <path d="m19.07 4.93-1.41 1.41" /></symbol>
<symbol id="moon" viewBox="0 0 24 24"><!-- @license lucide-static v1.33.0 - ISC -->

  <path d="M20.985 12.486a9 9 0 1 1-9.473-9.472c.405-.022.617.46.402.803a6 6 0 0 0 8.268 8.268c.344-.215.825-.004.803.401" /></symbol>
<symbol id="code" viewBox="0 0 24 24"><!-- @license lucide-static v1.33.0 - ISC -->

  <path d="m16 18 6-6-6-6" />
  <path d="m8 6-6 6 6 6" /></symbol>
<symbol id="heart" viewBox="0 0 24 24"><!-- @license lucide-static v1.33.0 - ISC -->

  <path d="M2 9.5a5.5 5.5 0 0 1 9.591-3.676.56.56 0 0 0 .818 0A5.49 5.49 0 0 1 22 9.5c0 2.29-1.5 4-3 5.5l-5.492 5.313a2 2 0 0 1-3 .019L5 15c-1.5-1.5-3-3.2-3-5.5" /></symbol>
<symbol id="save" viewBox="0 0 24 24"><!-- @license lucide-static v1.33.0 - ISC -->

  <path d="M15.2 3a2 2 0 0 1 1.4.6l3.8 3.8a2 2 0 0 1 .6 1.4V19a2 2 0 0 1-2 2H5a2 2 0 0 1-2-2V5a2 2 0 0 1 2-2z" />
  <path d="M17 21v-7a1 1 0 0 0-1-1H8a1 1 0 0 0-1 1v7" />
  <path d="M7 3v4a1 1 0 0 0 1 1h7" /></symbol>
<symbol id="copy" viewBox="0 0 24 24"><!-- @license lucide-static v1.33.0 - ISC -->

  <rect width="14" height="14" x="8" y="8" rx="2" ry="2" />
  <path d="M4 16c-1.1 0-2-.9-2-2V4c0-1.1.9-2 2-2h10c1.1 0 2 .9 2 2" /></symbol>
<symbol id="upload" viewBox="0 0 24 24"><!-- @license lucide-static v1.33.0 - ISC -->

  <path d="M12 3v12" />
  <path d="m17 8-5-5-5 5" />
  <path d="M21 15v4a2 2 0 0 1-2 2H5a2 2 0 0 1-2-2v-4" /></symbol>
<symbol id="download" viewBox="0 0 24 24"><!-- @license lucide-static v1.33.0 - ISC -->

  <path d="M12 15V3" />
  <path d="M21 15v4a2 2 0 0 1-2 2H5a2 2 0 0 1-2-2v-4" />
  <path d="m7 10 5 5 5-5" /></symbol>
<symbol id="user" viewBox="0 0 24 24"><!-- @license lucide-static v1.33.0 - ISC -->

  <path d="M19 21v-2a4 4 0 0 0-4-4H9a4 4 0 0 0-4 4v2" />
  <circle cx="12" cy="7" r="4" /></symbol>
<symbol id="users" viewBox="0 0 24 24"><!-- @license lucide-static v1.33.0 - ISC -->

  <path d="M16 21v-2a4 4 0 0 0-4-4H6a4 4 0 0 0-4 4v2" />
  <path d="M16 3.128a4 4 0 0 1 0 7.744" />
  <path d="M22 21v-2a4 4 0 0 0-3-3.87" />
  <circle cx="9" cy="7" r="4" /></symbol>
<symbol id="bell" viewBox="0 0 24 24"><!-- @license lucide-static v1.33.0 - ISC -->

  <path d="M10.268 21a2 2 0 0 0 3.464 0" />
  <path d="M3.262 15.326A1 1 0 0 0 4 17h16a1 1 0 0 0 .74-1.673C19.41 13.956 18 12.499 18 8A6 6 0 0 0 6 8c0 4.499-1.411 5.956-2.738 7.326" /></symbol>
<symbol id="house" viewBox="0 0 24 24"><!-- @license lucide-static v1.33.0 - ISC -->

  <path d="M15 21v-8a1 1 0 0 0-1-1h-4a1 1 0 0 0-1 1v8" />
  <path d="M3 10a2 2 0 0 1 .709-1.528l7-6a2 2 0 0 1 2.582 0l7 6A2 2 0 0 1 21 10v9a2 2 0 0 1-2 2H5a2 2 0 0 1-2-2z" /></symbol>
<symbol id="lock" viewBox="0 0 24 24"><!-- @license lucide-static v1.33.0 - ISC -->

  <rect width="18" height="11" x="3" y="11" rx="2" ry="2" />
  <path d="M7 11V7a5 5 0 0 1 10 0v4" /></symbol>
<symbol id="unlock" viewBox="0 0 24 24"><!-- @license lucide-static v1.33.0 - ISC -->

  <rect width="18" height="11" x="3" y="11" rx="2" ry="2" />
  <path d="M7 11V7a5 5 0 0 1 9.9-1" /></symbol>
<symbol id="calendar" viewBox="0 0 24 24"><!-- @license lucide-static v1.33.0 - ISC -->

  <path d="M8 2v3" />
  <path d="M16 2v3" />
  <rect x="3" y="3" width="18" height="18" rx="2" />
  <path d="M3 9h18" /></symbol>
<symbol id="clock" viewBox="0 0 24 24"><!-- @license lucide-static v1.33.0 - ISC -->

  <circle cx="12" cy="12" r="10" />
  <path d="M12 6v6l4 2" /></symbol>
<symbol id="star" viewBox="0 0 24 24"><!-- @license lucide-static v1.33.0 - ISC -->

  <path d="M11.525 2.295a.53.53 0 0 1 .95 0l2.31 4.679a2.123 2.123 0 0 0 1.595 1.16l5.166.756a.53.53 0 0 1 .294.904l-3.736 3.638a2.123 2.123 0 0 0-.611 1.878l.882 5.14a.53.53 0 0 1-.771.56l-4.618-2.428a2.122 2.122 0 0 0-1.973 0L6.396 21.01a.53.53 0 0 1-.77-.56l.881-5.139a2.122 2.122 0 0 0-.611-1.879L2.16 9.795a.53.53 0 0 1 .294-.906l5.165-.755a2.122 2.122 0 0 0 1.597-1.16z" /></symbol>
<symbol id="package" viewBox="0 0 24 24"><!-- @license lucide-static v1.33.0 - ISC -->

  <path d="M11 21.73a2 2 0 0 0 2 0l7-4A2 2 0 0 0 21 16V8a2 2 0 0 0-1-1.73l-7-4a2 2 0 0 0-2 0l-7 4A2 2 0 0 0 3 8v8a2 2 0 0 0 1 1.73z" />
  <path d="M12 22V12" />
  <polyline points="3.29 7 12 12 20.71 7" />
  <path d="m7.5 4.27 9 5.15" /></symbol>
<symbol id="tag" viewBox="0 0 24 24"><!-- @license lucide-static v1.33.0 - ISC -->

  <path d="M12.586 2.586A2 2 0 0 0 11.172 2H4a2 2 0 0 0-2 2v7.172a2 2 0 0 0 .586 1.414l8.704 8.704a2.426 2.426 0 0 0 3.42 0l6.58-6.58a2.426 2.426 0 0 0 0-3.42z" />
  <circle cx="7.5" cy="7.5" r=".5" fill="currentColor" /></symbol>
<symbol id="shield" viewBox="0 0 24 24"><!-- @license lucide-static v1.33.0 - ISC -->

  <path d="M20 13c0 5-3.5 7.5-7.66 8.95a1 1 0 0 1-.67-.01C7.5 20.5 4 18 4 13V6a1 1 0 0 1 1-1c2 0 4.5-1.2 6.24-2.72a1.17 1.17 0 0 1 1.52 0C14.51 3.81 17 5 19 5a1 1 0 0 1 1 1z" /></symbol>
<symbol id="arrow-up-down" viewBox="0 0 24 24"><!-- @license lucide-static v1.33.0 - ISC -->

  <path d="m21 16-4 4-4-4" />
  <path d="M17 20V4" />
  <path d="m3 8 4-4 4 4" />
  <path d="M7 4v16" /></symbol>
<symbol id="inbox" viewBox="0 0 24 24"><!-- @license lucide-static v1.33.0 - ISC -->

  <polyline points="22 12 16 12 14 15 10 15 8 12 2 12" />
  <path d="M5.45 5.11 2 12v6a2 2 0 0 0 2 2h16a2 2 0 0 0 2-2v-6l-3.45-6.89A2 2 0 0 0 16.76 4H7.24a2 2 0 0 0-1.79 1.11z" /></symbol>
<symbol id="file-spreadsheet" viewBox="0 0 24 24"><!-- @license lucide-static v1.33.0 - ISC -->

  <path d="M6 22a2 2 0 0 1-2-2V4a2 2 0 0 1 2-2h8a2.4 2.4 0 0 1 1.704.706l3.588 3.588A2.4 2.4 0 0 1 20 8v12a2 2 0 0 1-2 2z" />
  <path d="M14 2v5a1 1 0 0 0 1 1h5" />
  <path d="M8 13h2" />
  <path d="M14 13h2" />
  <path d="M8 17h2" />
  <path d="M14 17h2" /></symbol>
<symbol id="list" viewBox="0 0 24 24"><!-- @license lucide-static v1.33.0 - ISC -->

  <path d="M3 5h.01" />
  <path d="M3 12h.01" />
  <path d="M3 19h.01" />
  <path d="M8 5h13" />
  <path d="M8 12h13" />
  <path d="M8 19h13" /></symbol>
<symbol id="layout-grid" viewBox="0 0 24 24"><!-- @license lucide-static v1.33.0 - ISC -->

  <rect width="7" height="7" x="3" y="3" rx="1" />
  <rect width="7" height="7" x="14" y="3" rx="1" />
  <rect width="7" height="7" x="14" y="14" rx="1" />
  <rect width="7" height="7" x="3" y="14" rx="1" /></symbol>
<symbol id="shopping-cart" viewBox="0 0 24 24"><!-- @license lucide-static v1.33.0 - ISC -->

  <circle cx="8" cy="21" r="1" />
  <circle cx="19" cy="21" r="1" />
  <path d="M2.05 2.05h2l2.66 12.42a2 2 0 0 0 2 1.58h9.78a2 2 0 0 0 1.95-1.57l1.65-7.43H5.12" /></symbol>
<symbol id="receipt" viewBox="0 0 24 24"><!-- @license lucide-static v1.33.0 - ISC -->

  <path d="M12 17V7" />
  <path d="M16 8h-6a2 2 0 0 0 0 4h4a2 2 0 0 1 0 4H8" />
  <path d="M4 3a1 1 0 0 1 1-1 1.3 1.3 0 0 1 .7.2l.933.6a1.3 1.3 0 0 0 1.4 0l.934-.6a1.3 1.3 0 0 1 1.4 0l.933.6a1.3 1.3 0 0 0 1.4 0l.933-.6a1.3 1.3 0 0 1 1.4 0l.934.6a1.3 1.3 0 0 0 1.4 0l.933-.6A1.3 1.3 0 0 1 19 2a1 1 0 0 1 1 1v18a1 1 0 0 1-1 1 1.3 1.3 0 0 1-.7-.2l-.933-.6a1.3 1.3 0 0 0-1.4 0l-.934.6a1.3 1.3 0 0 1-1.4 0l-.933-.6a1.3 1.3 0 0 0-1.4 0l-.933.6a1.3 1.3 0 0 1-1.4 0l-.934-.6a1.3 1.3 0 0 0-1.4 0l-.933.6a1.3 1.3 0 0 1-.7.2 1 1 0 0 1-1-1z" /></symbol>
<symbol id="x-circle" viewBox="0 0 24 24"><!-- @license lucide-static v1.33.0 - ISC -->

  <circle cx="12" cy="12" r="10" />
  <path d="m15 9-6 6" />
  <path d="m9 9 6 6" /></symbol>
<symbol id="wifi" viewBox="0 0 24 24"><!-- @license lucide-static v1.33.0 - ISC -->

  <path d="M12 20h.01" />
  <path d="M2 8.82a15 15 0 0 1 20 0" />
  <path d="M5 12.859a10 10 0 0 1 14 0" />
  <path d="M8.5 16.429a5 5 0 0 1 7 0" /></symbol>
<symbol id="sparkles" viewBox="0 0 24 24"><!-- @license lucide-static v1.33.0 - ISC -->

  <path d="M11.017 2.814a1 1 0 0 1 1.966 0l1.051 5.558a2 2 0 0 0 1.594 1.594l5.558 1.051a1 1 0 0 1 0 1.966l-5.558 1.051a2 2 0 0 0-1.594 1.594l-1.051 5.558a1 1 0 0 1-1.966 0l-1.051-5.558a2 2 0 0 0-1.594-1.594l-5.558-1.051a1 1 0 0 1 0-1.966l5.558-1.051a2 2 0 0 0 1.594-1.594z" />
  <path d="M20 2v4" />
  <path d="M22 4h-4" />
  <circle cx="4" cy="20" r="2" /></symbol>
<symbol id="info" viewBox="0 0 24 24"><!-- @license lucide-static v1.33.0 - ISC -->

  <circle cx="12" cy="12" r="10" />
  <path d="M12 16v-4" />
  <path d="M12 8h.01" /></symbol>
<symbol id="globe" viewBox="0 0 24 24"><!-- @license lucide-static v1.33.0 - ISC -->

  <circle cx="12" cy="12" r="10" />
  <path d="M12 2a14.5 14.5 0 0 0 0 20 14.5 14.5 0 0 0 0-20" />
  <path d="M2 12h20" /></symbol>
<symbol id="log-out" viewBox="0 0 24 24"><!-- @license lucide-static v1.33.0 - ISC -->

  <path d="m16 17 5-5-5-5" />
  <path d="M21 12H9" />
  <path d="M9 21H5a2 2 0 0 1-2-2V5a2 2 0 0 1 2-2h4" /></symbol>
<symbol id="folder-open" viewBox="0 0 24 24"><!-- @license lucide-static v1.33.0 - ISC -->

  <path d="m6 14 1.5-2.9A2 2 0 0 1 9.24 10H20a2 2 0 0 1 1.94 2.5l-1.54 6a2 2 0 0 1-1.95 1.5H4a2 2 0 0 1-2-2V5a2 2 0 0 1 2-2h3.9a2 2 0 0 1 1.69.9l.81 1.2a2 2 0 0 0 1.67.9H18a2 2 0 0 1 2 2v2" /></symbol>
<symbol id="folder" viewBox="0 0 24 24"><!-- @license lucide-static v1.33.0 - ISC -->

  <path d="M20 20a2 2 0 0 0 2-2V8a2 2 0 0 0-2-2h-7.9a2 2 0 0 1-1.69-.9L9.6 3.9A2 2 0 0 0 7.93 3H4a2 2 0 0 0-2 2v13a2 2 0 0 0 2 2Z" /></symbol>
<symbol id="file-text" viewBox="0 0 24 24"><!-- @license lucide-static v1.33.0 - ISC -->

  <path d="M6 22a2 2 0 0 1-2-2V4a2 2 0 0 1 2-2h8a2.4 2.4 0 0 1 1.704.706l3.588 3.588A2.4 2.4 0 0 1 20 8v12a2 2 0 0 1-2 2z" />
  <path d="M14 2v5a1 1 0 0 0 1 1h5" />
  <path d="M10 9H8" />
  <path d="M16 13H8" />
  <path d="M16 17H8" /></symbol>
<symbol id="map-pin" viewBox="0 0 24 24"><!-- @license lucide-static v1.33.0 - ISC -->

  <path d="M20 10c0 4.993-5.539 10.193-7.399 11.799a1 1 0 0 1-1.202 0C9.539 20.193 4 14.993 4 10a8 8 0 0 1 16 0" />
  <circle cx="12" cy="10" r="3" /></symbol>
<symbol id="lock-open" viewBox="0 0 24 24"><!-- @license lucide-static v1.33.0 - ISC -->

  <rect width="18" height="11" x="3" y="11" rx="2" ry="2" />
  <path d="M7 11V7a5 5 0 0 1 9.9-1" /></symbol>
<symbol id="volume-2" viewBox="0 0 24 24"><!-- @license lucide-static v1.33.0 - ISC -->

  <path d="M11 4.702a.705.705 0 0 0-1.203-.498L6.413 7.587A1.4 1.4 0 0 1 5.416 8H3a1 1 0 0 0-1 1v6a1 1 0 0 0 1 1h2.416a1.4 1.4 0 0 1 .997.413l3.383 3.384A.705.705 0 0 0 11 19.298z" />
  <path d="M16 9a5 5 0 0 1 0 6" />
  <path d="M19.364 18.364a9 9 0 0 0 0-12.728" /></symbol>
<symbol id="volume-x" viewBox="0 0 24 24"><!-- @license lucide-static v1.33.0 - ISC -->

  <path d="M11 4.702a.705.705 0 0 0-1.203-.498L6.413 7.587A1.4 1.4 0 0 1 5.416 8H3a1 1 0 0 0-1 1v6a1 1 0 0 0 1 1h2.416a1.4 1.4 0 0 1 .997.413l3.383 3.384A.705.705 0 0 0 11 19.298z" />
  <line x1="22" x2="16" y1="9" y2="15" />
  <line x1="16" x2="22" y1="9" y2="15" /></symbol>
<symbol id="phone" viewBox="0 0 24 24"><!-- @license lucide-static v1.33.0 - ISC -->

  <path d="M13.832 16.568a1 1 0 0 0 1.213-.303l.355-.465A2 2 0 0 1 17 15h3a2 2 0 0 1 2 2v3a2 2 0 0 1-2 2A18 18 0 0 1 2 4a2 2 0 0 1 2-2h3a2 2 0 0 1 2 2v3a2 2 0 0 1-.8 1.6l-.468.351a1 1 0 0 0-.292 1.233 14 14 0 0 0 6.392 6.384" /></symbol>
<symbol id="bookmark" viewBox="0 0 24 24"><!-- @license lucide-static v1.33.0 - ISC -->

  <path d="M17 3a2 2 0 0 1 2 2v15a1 1 0 0 1-1.496.868l-4.512-2.578a2 2 0 0 0-1.984 0l-4.512 2.578A1 1 0 0 1 5 20V5a2 2 0 0 1 2-2z" /></symbol>
<symbol id="user-round" viewBox="0 0 24 24"><!-- @license lucide-static v1.33.0 - ISC -->

  <circle cx="12" cy="8" r="5" />
  <path d="M20 21a8 8 0 0 0-16 0" /></symbol>
<symbol id="circle-help" viewBox="0 0 24 24"><!-- @license lucide-static v1.33.0 - ISC -->

  <circle cx="12" cy="12" r="10" />
  <path d="M9.09 9a3 3 0 0 1 5.83 1c0 2-3 3-3 3" />
  <path d="M12 17h.01" /></symbol>
<symbol id="maximize-2" viewBox="0 0 24 24"><!-- @license lucide-static v1.33.0 - ISC -->

  <path d="M15 3h6v6" />
  <path d="m21 3-7 7" />
  <path d="m3 21 7-7" />
  <path d="M9 21H3v-6" /></symbol>
<symbol id="minimize-2" viewBox="0 0 24 24"><!-- @license lucide-static v1.33.0 - ISC -->

  <path d="m14 10 7-7" />
  <path d="M20 10h-6V4" />
  <path d="m3 21 7-7" />
  <path d="M4 14h6v6" /></symbol>
<symbol id="move-horizontal" viewBox="0 0 24 24"><!-- @license lucide-static v1.33.0 - ISC -->

  <path d="m18 8 4 4-4 4" />
  <path d="M2 12h20" />
  <path d="m6 8-4 4 4 4" /></symbol>
<symbol id="circle-x" viewBox="0 0 24 24"><!-- @license lucide-static v1.33.0 - ISC -->

  <circle cx="12" cy="12" r="10" />
  <path d="m15 9-6 6" />
  <path d="m9 9 6 6" /></symbol>
<symbol id="cloud" viewBox="0 0 24 24"><!-- @license lucide-static v1.33.0 - ISC -->

  <path d="M17.5 19H9a7 7 0 1 1 6.71-9h1.79a4.5 4.5 0 1 1 0 9Z" /></symbol>
<symbol id="server" viewBox="0 0 24 24"><!-- @license lucide-static v1.33.0 - ISC -->

  <rect width="20" height="8" x="2" y="2" rx="2" ry="2" />
  <rect width="20" height="8" x="2" y="14" rx="2" ry="2" />
  <line x1="6" x2="6.01" y1="6" y2="6" />
  <line x1="6" x2="6.01" y1="18" y2="18" /></symbol>
<symbol id="database" viewBox="0 0 24 24"><!-- @license lucide-static v1.33.0 - ISC -->

  <ellipse cx="12" cy="5" rx="9" ry="3" />
  <path d="M3 5V19A9 3 0 0 0 21 19V5" />
  <path d="M3 12A9 3 0 0 0 21 12" /></symbol>
<symbol id="box" viewBox="0 0 24 24"><!-- @license lucide-static v1.33.0 - ISC -->

  <path d="M21 8a2 2 0 0 0-1-1.73l-7-4a2 2 0 0 0-2 0l-7 4A2 2 0 0 0 3 8v8a2 2 0 0 0 1 1.73l7 4a2 2 0 0 0 2 0l7-4A2 2 0 0 0 21 16Z" />
  <path d="m3.3 7 8.7 5 8.7-5" />
  <path d="M12 22V12" /></symbol>
<symbol id="ellipsis-vertical" viewBox="0 0 24 24"><!-- @license lucide-static v1.33.0 - ISC -->

  <circle cx="12" cy="12" r="1" />
  <circle cx="12" cy="5" r="1" />
  <circle cx="12" cy="19" r="1" /></symbol>
<symbol id="panel-left" viewBox="0 0 24 24"><!-- @license lucide-static v1.33.0 - ISC -->

  <rect width="18" height="18" x="3" y="3" rx="2" />
  <path d="M9 3v18" /></symbol>
<symbol id="credit-card" viewBox="0 0 24 24"><!-- @license lucide-static v1.33.0 - ISC -->

  <rect width="20" height="14" x="2" y="5" rx="2" />
  <line x1="2" x2="22" y1="10" y2="10" /></symbol>
<symbol id="circle-check" viewBox="0 0 24 24"><!-- @license lucide-static v1.33.0 - ISC -->

  <circle cx="12" cy="12" r="10" />
  <path d="m9 12 2 2 4-4" /></symbol>
<symbol id="user-plus" viewBox="0 0 24 24"><!-- @license lucide-static v1.33.0 - ISC -->

  <path d="M16 21v-2a4 4 0 0 0-4-4H6a4 4 0 0 0-4 4v2" />
  <circle cx="9" cy="7" r="4" />
  <line x1="19" x2="19" y1="8" y2="14" />
  <line x1="22" x2="16" y1="11" y2="11" /></symbol>
<symbol id="history" viewBox="0 0 24 24"><!-- @license lucide-static v1.33.0 - ISC -->

  <path d="M3 12a9 9 0 1 0 9-9 9.75 9.75 0 0 0-6.74 2.74L3 8" />
  <path d="M3 3v5h5" />
  <path d="M12 7v5l4 2" /></symbol>
<symbol id="circle-plus" viewBox="0 0 24 24"><!-- @license lucide-static v1.33.0 - ISC -->

  <circle cx="12" cy="12" r="10" />
  <path d="M8 12h8" />
  <path d="M12 8v8" /></symbol>
<symbol id="circle-minus" viewBox="0 0 24 24"><!-- @license lucide-static v1.33.0 - ISC -->

  <circle cx="12" cy="12" r="10" />
  <path d="M8 12h8" /></symbol>
<symbol id="chevrons-up-down" viewBox="0 0 24 24"><!-- @license lucide-static v1.33.0 - ISC -->

  <path d="m7 15 5 5 5-5" />
  <path d="m7 9 5-5 5 5" /></symbol>
<symbol id="image" viewBox="0 0 24 24"><!-- @license lucide-static v1.33.0 - ISC -->

  <rect width="18" height="18" x="3" y="3" rx="2" ry="2" />
  <circle cx="9" cy="9" r="2" />
  <path d="m21 15-3.086-3.086a2 2 0 0 0-2.828 0L6 21" /></symbol>
</svg>